<svg id="Grupo_6" data-name="Grupo 6" xmlns="http://www.w3.org/2000/svg" xmlns:xlink="http://www.w3.org/1999/xlink" width="55.339" height="55.455" viewBox="0 0 55.339 55.455">
  <defs>
    <clipPath id="clip-path">
      <rect id="Rectángulo_11" data-name="Rectángulo 11" width="55.339" height="55.455" fill="#335a39"/>
    </clipPath>
  </defs>
  <g id="Grupo_5" data-name="Grupo 5" clip-path="url(#clip-path)">
    <path id="Trazado_15" data-name="Trazado 15" d="M50.622,25.427A6.455,6.455,0,0,0,46.6,26.577H43.6a16.524,16.524,0,0,0-3.912-9.549l2.071-2.071A6.443,6.443,0,0,0,45.445,13c1.841-1.726,2.531-3.912,1.726-4.833-.92-.92-3.106-.115-4.832,1.611a5.817,5.817,0,0,0-1.956,3.682l-2.071,2.071a15.527,15.527,0,0,0-9.549-3.912V8.629A6.456,6.456,0,0,0,29.914,4.6c0-2.531-1.035-4.6-2.3-4.6s-2.3,2.071-2.3,4.6a6.455,6.455,0,0,0,1.151,4.027V11.62a16.524,16.524,0,0,0-9.549,3.912l-1.957-2.071A6.443,6.443,0,0,0,13,9.779C11.16,8.054,8.974,7.363,8.054,8.169c-.92.92-.115,3.106,1.611,4.832a5.817,5.817,0,0,0,3.682,1.956l2.071,2.071A15.527,15.527,0,0,0,11.5,26.577H8.629A6.456,6.456,0,0,0,4.6,25.426c-2.531,0-4.6,1.035-4.6,2.3s2.071,2.3,4.6,2.3a6.455,6.455,0,0,0,4.027-1.151H11.62a16.524,16.524,0,0,0,3.912,9.549l-2.186,1.957a6.443,6.443,0,0,0-3.682,1.956c-1.726,1.841-2.416,4.027-1.611,4.947.92.92,3.106.115,4.832-1.611a5.817,5.817,0,0,0,1.956-3.682l2.071-2.071a15.527,15.527,0,0,0,9.549,3.912v2.991a6.456,6.456,0,0,0-1.151,4.027c0,2.531,1.035,4.6,2.3,4.6s2.3-2.071,2.3-4.6a6.455,6.455,0,0,0-1.151-4.027V43.835a16.524,16.524,0,0,0,9.549-3.912l2.071,2.071a6.443,6.443,0,0,0,1.956,3.682c1.841,1.841,3.912,2.531,4.832,1.611s.115-3.106-1.611-4.832A5.817,5.817,0,0,0,41.878,40.5l-2.071-2.071a15.527,15.527,0,0,0,3.912-9.549H46.71a6.456,6.456,0,0,0,4.027,1.151c2.531,0,4.6-1.035,4.6-2.3C55.225,26.462,53.154,25.427,50.622,25.427ZM40.153,26.692H34.516a7.4,7.4,0,0,0-1.265-3.106l4.027-4.027a12.76,12.76,0,0,1,2.876,7.133m-12.541,4.6a3.567,3.567,0,1,1,3.567-3.567,3.585,3.585,0,0,1-3.567,3.567m8.169-13.231L31.754,22.09a7.586,7.586,0,0,0-2.991-1.265V15.187a12.747,12.747,0,0,1,7.018,2.876m-9.2-2.876v5.638a7.4,7.4,0,0,0-3.106,1.265l-4.027-4.027a12.76,12.76,0,0,1,7.133-2.876m-8.629,4.372,4.027,4.027a7.4,7.4,0,0,0-1.265,3.106H15.072A12.76,12.76,0,0,1,17.948,19.559Zm-2.876,9.2h5.638a7.4,7.4,0,0,0,1.265,3.106L17.948,35.9a12.76,12.76,0,0,1-2.876-7.133m4.372,8.629,4.027-4.027a7.4,7.4,0,0,0,3.106,1.265v5.638a12.76,12.76,0,0,1-7.133-2.876m9.2,2.876V34.63a7.4,7.4,0,0,0,3.106-1.265l4.027,4.027a12.76,12.76,0,0,1-7.133,2.876M37.277,35.9,33.25,31.869a7.4,7.4,0,0,0,1.265-3.106h5.638A12.76,12.76,0,0,1,37.277,35.9" fill="#335a39"/>
  </g>
</svg>
