<svg id="Grupo_4" data-name="Grupo 4" xmlns="http://www.w3.org/2000/svg" xmlns:xlink="http://www.w3.org/1999/xlink" width="57.881" height="57.875" viewBox="0 0 57.881 57.875">
  <defs>
    <clipPath id="clip-path">
      <rect id="Rectángulo_10" data-name="Rectángulo 10" width="57.881" height="57.875" fill="#335a39"/>
    </clipPath>
  </defs>
  <path id="Trazado_5" data-name="Trazado 5" d="M247.59,166.612l.172.119.024.137.156.1-.089.121-.051.121.025.186.1.131.08-.131.164-.129.23.04.017.139-.07.232.026.143.026.183-.035.235.034.208.131-.024.221-.029.184-.034.251-.039.245-.07.016.1-.016.112-.041.23.057.139.171-.053.277.027.009.151-.008.186.029.172-.129.126-.188.216-.144.018-.263-.063-.144-.017-.156.017.117.282.043.222-.022.1-.138.14.09.092.152-.026.134.165-.06.121-.129.1-.163.168-.227.152-.022.108.022.184.1.174.155.043.013-.152.2-.1.189.231.187-.029.165-.058.137-.06.168-.061.26-.035.028.173-.092.126-.248.045-.152.017-.207.064-.147.034-.135.035-.164.149-.08.16-.087.162-.05.186-.058.126-.126.133-.131.08-.006.233.066.135.313-.081.063-.12.078-.243.079-.12.143-.052.2.077.1-.018.143-.017.181-.026.026-.234.1-.081.3.012.188.023.147-.023.122-.134.16-.169.1-.061.143-.014.184.009.112-.009.1-.021.32.025.208-.025.141-.025.132-.137.179-.027.163-.1.093-.09.013-.154-.083-.091-.179.026-.164-.047.005-.188.026-.117v-.183l.125-.017.147-.025.122-.058.109-.1.051-.146.018-.109-.013-.1.018-.38-.214-.152-.178,0-.208.018-.134.138-.13.209-.094-.108-.154-.118.012-.222-.047-.256-.179-.15.214-.058-.1-.183-.12-.052-.126-.1-.185-.009-.058-.138-.1-.13-.377-.3-.259-.006-.084-.1-.062-.145-.026-.183-.087-.117-.167-.325h-.227l-.039-.1-.1-.138-.152-.014-.125-.014-.013-.155.044-.143-.01-.3-.008-.11.095-.087.087-.155.137-.091-.035-.179.005-.077.007-.149-.009-.07-.012-.043-.1-.2-.181-.013-.153.02-.1.013-.272.118-.147.022-.209.033-.158-.012-.026-.181.005-.222.168-.093-.024-.143.2-.155.016-.323-.033-.11-.193-.045-.223.074-.189.167-.1.012-.1-.068-.139.011.026.144-.018.113-.122.194-.038.183.032.184-.058.159-.174.08.026.168-.052.117.052.193.005.013.06.146-.005.054-.026.181Z" transform="translate(-221.212 -147.583)" fill="#335a39"/>
  <path id="Trazado_6" data-name="Trazado 6" d="M243.955,176.755l.042-.193-.164-.168-.1-.087-.087-.1-.122-.093-.139.021-.051.183-.242.116.041-.107.033-.089-.01-.146-.126-.123-.2.179-.177.021-.147-.013-.061.127-.058.114-.017.111.049.109.026.137-.141.059-.121.167-.047.155-.184.035-.146.023-.133.055.024.112.013.1.034.285-.28.084.035.218.021.142.089.1.109-.017.142-.017.136-.1.126-.13.116.089-.093.087-.014.121.014.1-.048.156-.062.113-.125.357-.105.269-.227.219.132.088.063.148.109.05.028.143.1-.02.1-.079.165-.075.134.141.159.048.2-.144.114-.213.121-.151.112-.028.213-.027.017-.117,0-.214.149-.025.121-.13.046-.252.117-.179-.05-.108-.113-.2-.021-.214-.034-.15.017-.137-.025-.155.008-.18.131-.167.165-.107.156-.129-.053-.1Z" transform="translate(-214.783 -156.875)" fill="#335a39"/>
  <path id="Trazado_7" data-name="Trazado 7" d="M118.2,281.5l-.164-.16-.5-.03-.567.052-.3-.105-.692.254-.247.282-.092.1-.147.225-.113.231.108.155.269-.076.086-.079.141-.3.174-.238.268-.121.3-.093.236.191.11.167.131-.091.173-.03.2.116.156-.1.439.33.108.228.415-.072.323-.008.141.193.072.267.288.043.292.055.168.184-.087.334-.046.174.147.03.515-.126.5-.209.171-.065.272-.005.4-.026-.219-.458-.456.036-.144-.067-.254-.448-.31.054-.4-.084-.093-.117-.3-.116-.994-.2Z" transform="translate(-103.246 -250.106)" fill="#335a39"/>
  <path id="Trazado_8" data-name="Trazado 8" d="M135.272,287.593l-.364-.012.049.3.232.112.352-.051.335-.043h.005l.2-.036.188-.03.594.017.094.134.126-.078.089-.186-.045-.271.142.058.259.061.2-.069.27-.179.265-.079.275-.042.242-.074-.275-.344-.633-.053-.431-.209-.443-.108-.573.118-.407.173-.058.537.231.138.046.24-.19.058-.121.029h-.1l-.332-.012Z" transform="translate(-120.242 -254.398)" fill="#335a39"/>
  <path id="Trazado_9" data-name="Trazado 9" d="M128.506,290.933l-.959.079-.127.3.343.091.188.081.147.083.167.117.154-.123.254-.152.085-.154-.127-.168Z" transform="translate(-113.134 -258.09)" fill="#335a39"/>
  <g id="Grupo_3" data-name="Grupo 3">
    <g id="Grupo_2" data-name="Grupo 2" clip-path="url(#clip-path)">
      <path id="Trazado_10" data-name="Trazado 10" d="M87.335,65.774A21.444,21.444,0,1,0,108.777,87.22,21.469,21.469,0,0,0,87.335,65.774ZM99.8,81.15l.016.047.011.04.03.028.024-.036.06-.016.013,0L100,81.2l.029.006v0l0,.031-.028.094.045.082.035.047.026.047.008.01.028.026.018.037.006.034-.022.015-.01,0-.02.055.036.1,0,.07.012.08-.006.038v0l.012.083.019.034,0,.042-.015.032-.052.01-.023-.031-.061-.012-.043.008-.054.027-.047.017-.036.048-.043.037-.1,0-.105-.043-.027-.047-.04-.013-.058-.008-.042-.028-.055-.012-.048.012-.047,0-.057-.022-.042-.01-.013-.022-.014-.026,0-.037,0-.024-.053-.072-.028-.047-.057-.043-.012-.069.024-.043.037-.077.008-.03.018-.093.012-.053,0-.054.031-.045-.007-.059-.013-.068,0-.049.06-.01.039-.016-.016-.028-.042-.026-.04.008-.047-.044-.04-.052-.014-.022-.047-.067-.015-.021-.044-.024-.068-.06-.043-.022-.037-.035-.012-.078-.054-.037-.072-.076-.057-.212-.044-.04-.013-.074.022-.057-.044-.033-.053-.022-.047.024-.03.025-.015-.045v-.072l0-.1.023-.186.01-.073.013-.112.052-.046.032-.057.033.024.067.033.075-.093-.04-.013-.017-.04.077-.019.034.013.052.022.033-.035.006-.056.025-.028.134.02L99,79.324l.047-.09,0-.032.022-.06.024-.022.057-.024.061-.007.027.057.057.032.024.014h.08l.07-.011.039.051.047.031.113.029.092.013.015.08.028.066.041.056.042.031.04.045.006.048-.012.062-.045.049-.065.03-.066-.02-.041-.025-.053,0-.061-.02L99.56,79.7l-.018,0h-.073l-.025.052-.02.049-.093.012s0-.008-.027.013l-.028.024.008.111.059.045-.008.039-.1,0-.116.028.032.077.077.029.077.036.028.068.028.031.066.049.057.028.043.019h.03l.06,0,.039,0,.062.264h.039l.036-.01.012,0,.029-.035.018-.02.013-.017.034.028.043,0,.078.06a.07.07,0,0,0,.023.057.77.77,0,0,0,.056.064l.056.022.053.02-.022.055-.029.013,0,.06-.017.039-.011.025-.04.02-.038-.008-.062-.009L99.935,81l-.028-.012-.022-.006-.025-.006-.008.013-.035.064-.028.051Zm-19.192-13.3,0-.006.276-.094-.042.035-.006,0-.068.054-.039.006-.133.016Zm6.727,39.874A20.514,20.514,0,0,1,67.441,92.21l.04.023.092.109.187.093.16.077.1.03.13.056.185.093.125.006.124.029.138.081.244.013.161.044.155-.093.092-.068.383-.018.073,0,.028,0,.088.084.1.039.073.158.175.047.163.074.074.009.242.138.133-.067.122-.022.226.042.022.146H71.4l.118.133.072-.039.033.029.046.034.006,0,.133.1.012.072-.068.036-.029.127.1.184.1-.017.11.053.131.078.077.162.115.039.04.012.05.024.026.012.1-.031.183.137.074.015.211-.084-.013-.072-.085-.084.083-.089.123-.016.128.055.074.013.04.091.019.121.041.119.122.006.046.139.02.12.02.144.025.145-.035.1v.175l.11.081-.124.142-.082.111-.059.107.028.147-.112.138-.075.108-.082.083.1.134-.018.059-.033.1v.008l0,.143-.033.1,0,.149.02.144.04.117.084.012.034.092-.053.107-.09.092-.048.15.046.14.04.117.115.256.135.1.138.081.113.1.063.089.136.1.164.25.016.034.031.065.025.059.105.209.274.5.2.385.078.185.153.047.14.1.074.057.038.025.032.01.2.055.138.1.158.053.09.068.1.073.028.084.075.245.094.155.028.194.011.221.02.291.02.119-.051.179.013.1.1.278.018.144-.029.112,0,.017-.025.052-.028.052.015.1.045.144-.02.347-.052.152.008.039.012.073v.01l.113.105.024.12-.049.2-.013.057.008.024c.105.064.207.127.31.193a20.965,20.965,0,0,0,2.868,1.426l0-.01.031-.066.012-.02.092-.358-.048-.141-.106-.059-.018-.135v-.007l-.069-.113,0,0-.163-.119-.125-.175.018-.2.081.06.081.184.128.031.086.085.122,0,.141-.045.286-.042.08-.144.034-.062.131-.242.038-.068.025-.046.024-.152,0-.2.141-.194.043-.191.013-.068.139.214.024.037,0-.013.018-.079.021-.085.025-.175.043-.2.1-.118.076-.134-.016-.1-.02-.142-.025-.169-.064-.259.034-.1.078-.115.064-.08.12-.168.166-.164.053-.05.019-.016.18-.078.059-.131.133-.066.249-.162.169-.006.032-.123,0-.2.074-.3.114-.216.082-.282-.015-.119.023-.129.008-.3-.054-.188L82.6,99.2l0-.045-.006-.024-.052-.212.065-.38.093-.012.026-.008.02-.071.029-.109L82.8,98.2l.027-.15.119-.193.19-.2.019-.2,0,0,.012-.073.042-.205-.064-.409-.14-.127-.058-.212-.16-.05-.185.056-.2-.168-.259-.232L81.909,96,81.9,96l-.062.009-.128.017-.254-.056-.225-.037-.05.156-.137-.107-.209-.212-.181-.072-.209-.062-.265.01-.125.145-.032-.216-.111-.081-.159.072-.134.243.019.121-.1-.013-.113.068-.024-.166.034-.229.214-.08.006-.122-.018-.125-.115-.1.049-.153-.11-.057-.053-.213-.164-.263-.172-.15-.193-.142-.288-.1-.107-.059-.467.1-.072.014h0L77.791,94l-.127-.032-.137.071L77.5,93.9l0-.147-.05-.061-.261-.111s-.165.072-.2,0-.013-.1-.013-.1l.01-.1-.11-.059-.128-.057-.134-.075v-.17l-.093.039-.148.061-.129.056-.056.128-.2.009-.1-.057-.172.023-.143.02-.181.1-.065-.112-.133-.079-.161-.074-.125-.03.016.117-.11.091-.112.093.016.1.008.044.012.018.082.115-.015.093-.008.059-.045.008-.054,0-.092-.129-.025-.168v-.147l-.044-.142.02-.039.049-.093.044-.084-.066.009-.072.013-.006,0-.06.084-.084.084-.113.093-.091.04-.225.131-.057.107-.025.149.047.142-.169.344-.333-.264-.168-.149-.187.078-.125.142-.162.072-.211.016-.181-.177-.1-.144-.116-.166-.082-.206,0,0,0-.247,0-.426v-.109L72,92.545l-.152-.066-.059-.022h-.023l-.32.006-.165.047-.133.041-.115.039L71,92.6l-.178-.02.006-.033.012-.058.066-.363-.015-.243.122-.166-.072-.78-.191.034-.231.087-.131.113-.068.184.023.168-.086.232-.134.1-.143.047-.111.067-.077.134-.108.047-.073.029-.119.018-.029.006-.008-.018-.031-.069v0l-.206-.091-.49-.614-.04-.237-.031-.221-.1-.375.034-.2.082-.107-.025-.171-.1-.228-.006-.2.091-.206.228-.132.021-.152.1-.161L69.014,89l.071-.031.079-.032.185-.077.164-.027.225.016.073.133.106-.09.2.019.086-.085-.042-.115v-.171l.193-.03.212-.033L70.7,88.4l.162.1.14.025.012,0,.061-.008.084-.013.09-.04.115.082.117.129.066.11.118.3.023.144.115.037.018.121.129.12.107.206.1-.015.035-.081.032-.127-.032-.218L72.1,89.05l-.11-.229-.028-.189-.118-.132-.027-.166.013-.225.014-.247.137-.218.081-.109.294-.318.123-.164.125-.141.014-.08.148-.146-.074-.181-.069-.113-.16-.1-.022-.145-.072-.134,0-.125-.021-.142.023-.06.022-.059.044-.119h.172l-.081.111-.008.024-.021.059-.006.021.025.168.081.06.133.055.051-.156.036-.109.013-.044-.013-.016-.084-.115.066-.063.117-.039.061-.109.008-.1,0-.072v-.024l.175-.149h-.15l.125-.168.092-.04.037-.016.072-.033.121-.059.119-.017.011-.1-.04-.089v-.173l-.027-.172L73.665,84l.141-.049.126-.115.131.05.089-.063.034-.1-.028-.168.191-.055.114-.04.069-.057.032-.081.09-.088.067.137.122.006.06.065-.279.093-.11.093-.111.114.048.141.085.059.136.08L74.793,84l.107-.111.03-.128.1-.163.14-.045.088-.065.139-.216-.2-.02-.2.031-.145-.125-.082-.085-.1-.181-.1-.157-.254-.057.006-.123.1.008.144-.193.015-.077-.037-.093-.1-.109-.168.027-.271.14-.151.143-.217.186-.139.216,0-.124.086-.255.134-.1.107-.115.073-.131.189-.225.45-.1.214-.057.137-.068.21.088.254-.113.128-.117.212-.2-.02-.119.163-.075.207-.081.146-.2L76.18,80.7l-.029-.191-.159-.074-.125-.031-.209.106-.357.225.11-.091.112-.214.144-.045.084-.086-.043-.115-.083-.088-.1-.008-.337.05-.1-.181-.16-.1-.114-.11-.118-.1.156-.1-.015-.1-.149-.024-.015-.125-.122-.1-.082-.084-.139.045.054-.133-.024-.143-.087-.09-.131-.048-.1-.159-.024-.161,0-.029-.066.009h-.006l-.022.123,0,.029,0,.006-.091.183-.115.066-.057.078-.109.117-.135.047-.1.035-.091-.132-.081-.04-.2.012-.057-.217,0-.125,0-.066v0l0-.149.007-.1-.144.022-.036-.066-.084-.087-.135.093-.093.015-.1-.159-.189-.081L72.086,78l-.048-.023-.167-.088-.161.147-.253-.03-.244,0-.23.069.031.207.032.2.023.17.11.021.068.232-.049.115-.19.13-.045.182.019.015.049.043.175.149.174.251.11.093.061.052.034.031-.024.319-.069.219-.083.064-.086.069-.047.04-.151.159.064.2.043.069.052.091,0,.012.029.194-.015.35-.082.15-.045,0-.072-.01-.131-.015-.161-.148-.062-.166-.14-.136-.03-.172-.031-.2-.035-.239-.2-.087-.444.067-.236-.079-.072-.021-.2-.069-.163-.145-.056-.026-.066-.03-.106-.048-.212-.039-.219-.071-.193.1-.156-.117-.1-.115A20.453,20.453,0,0,1,70.724,75.2l.07.04,0-.082.06-.04.069.02.11.081.04-.055.06.088.02.112.12.034-.044.152.04.043.06.068.06-.025.074-.043.057-.073.09-.05.014.1.017.113h0l.1.048.069.021.013.112.056.14.059.074-.109.029.016.1.022.059.04.045-.056.057-.057.075-.074.107-.074.1.006.115.289.2-.037.088-.264.087-.1.052-.244,0-.192.109-.052.029-.007.02-.088.222.022.126.08.022.077.053.187-.062.112-.131.061-.008.012,0,.07-.012.041-.02.008,0-.039-.143.05.025.047-.006.1-.033.04.06.1,0,.057.053.107.049.036.029.041.038.058.053.034.031.13-.017.053.041-.077.06-.026.02.021.052,0,.008.05.006.02,0,.128,0,.047-.022.016-.007.144-.022.2-.045.151.01.144-.023.131.013.153-.039-.008-.084-.1.019-.1-.1-.133-.01-.175-.087-.161-.093.061-.024.143-.039.09-.047.113.1.2-.066.187.055-.035-.14.037-.089L73.656,77l-.059-.071-.08,0L73.2,76.8l-.092-.1-.069-.1-.053-.039.031-.219L73,76.222l.136-.055.088.119.068.053.078.07.132.015.016.078.08.015.058.057.075.072.169.007.11-.015.006-.066L74,76.395l.109-.047.017-.088-.009-.078.24-.035-.006-.245-.046-.076-.089-.066-.129.016-.164.111-.05-.009-.062.009L73.7,75.9l-.128-.191-.083-.135-.078.043-.04.055-.053.073-.14.057-.078-.1-.043-.05L73,75.594l-.019-.023-.226-.046-.068-.059-.019-.107.066-.013.068-.09-.05-.107.125-.019-.1-.066-.133.006-.064-.091.075-.062.088-.043V74.76l-.12-.049,0,.066-.115,0-.1-.131-.122-.019-.044-.006-.04.056-.029.129-.007.04-.007-.017-.028-.092-.033-.113-.063-.069-.075-.056-.061-.084-.157.02c-.049.006-.029.024-.029.024l-.16.022-.043-.059-.133.087-.01-.068,0-.047v-.04a20.663,20.663,0,0,1,2.149-2.291l.12-.02.223.042.138.1.03.029.033.038.037,0,.057-.009.1-.04.079.037.036.093.033.068.268.11.152.038.022,0,.013.084.006.037-.025.152.127,0,.041.115.133.083.019.121.134.076.018.118-.065.059-.031.129v.121l-.016.077.012.07.121.006.091-.039.113-.066.067,0,.06,0,.02,0,.2-.034.032.07.1.011.126,0,.077.037-.035.1.016.094.064.09-.014.074-.119.022-.078-.038-.133-.057-.225-.013-.19.032-.01,0-.1.036-.012,0,.01,0,.069.022.1.025.057.06.2.019.059.063.1.034.1.038.1-.015.068-.037.074-.006.052.061.022.117.041.12,0,.146-.09.013.019.146,0,.121-.1-.008-.1.016-.084.085-.015.077.078.038.2-.029.093-.016.043.091.033.094-.115.04-.124,0-.1-.031-.116.062-.105.117.021.12.093.106-.062.11.025.141.079.04.033.066.1-.014.136.077.047.165-.008.1-.038.078.062.092.1-.113.015-.075.07-.04.094-.011-.057.13-.086.064-.068.057.07.115.1.057.016.093.04.07.007,0,.076-.012.01,0,.061.09.068.049.015.012.008.054.013.065.165-.118.01,0,0,0,.038.085.092.109.018.121.081.032.036.1.059.09.14-.069.057-.108.088-.063.041.1.091.105.17-.028.12.006.062.066.077.037.075.162.057-.057.069-.06.013-.077-.039-.07-.082-.084.051-.109.079-.157.01-.1.034-.077,0-.174v-.123l.027-.043.039-.062.028-.027.032-.032.042-.08.033-.075-.017-.1,0-.194.012-.1.025-.153.01-.071.088-.066.032-.125.21-.057.113-.094.118-.04.037.1.1.006.06-.082.053-.01.069-.011.02,0,.108-.091.08-.131.034-.1.064-.084.087-.062.158-.245.11-.068-.014-.093-.024-.17.084.064.075.012.137-.072.118-.038.047-.01.1.01L81,74.364l.069-.012.094-.037.066-.038.066-.061.044-.031.1.012.115-.019.053-.154.137-.07.062-.084.1.013.053-.108.168-.05.117-.02.013-.077.058-.106.141-.191-.189.029-.126,0-.154-.077-.121.019-.156.123-.093.012.041-.2.013-.077-.059-.065.059-.1-.082-.062-.071.01h-.15l-.121.021-.11-.084.072-.012.1-.018.073-.012.071-.01.092-.016.077.015.1.01.08.035.084.06.11.087.039.065.1.032.1.033.1.038.12.006.079.01.063-.055-.013-.1-.041-.113-.136-.082-.09-.106-.237-.088-.107-.081-.1-.031-.086-.06-.077-.04-.091.04-.094.014-.124-.007-.031-.052-.039-.062.008-.006.055-.071.069-.036.087-.066.115-.067.086.114.081.035.062.065h.013l.084.01.033.059.068.12.111.059.075.012.1.033.069-.033-.059-.066-.062-.086.11-.068-.065-.066-.015-.017-.137-.055-.11-.083-.166-.1.175-.025.1.01.145-.022.084-.093.118-.037.056-.131-.093-.109-.231.109v-.175l.191-.049-.017-.1-.011-.072-.011-.073-.143-.125.1-.015.081.013.1.06.056-.132-.015-.1-.181-.217-.112.065-.122.019.064-.084.056-.1-.016-.075-.015-.043-.018-.049.278,0h.066l.054.04.12-.02.091-.059-.015-.021-.047-.064-.037-.054-.062-.087-.093.037-.142.022-.086-.06.147-.17-.178-.022-.293,0-.012-.073c-.01-.07.1.01.1.01l.175-.024.029-.1.034-.1.145-.168-.033-.218.3-.141-.012-.073-.212-.092-.165.027-.138.07-.044-.121.109-.086.168-.025.108.053.337-.049.125-.168.076-.074.056-.053.019-.017.081-.084.11-.093.08-.109.179.022.137-.191-.153-.053-.286.046-.079.013-.051.006-.183.028-.406.06-.136.1-.166.025-.167.027-.125-.007-.139.069-.125.141-.077.114-.161.093-.025,0-.082.012-.106.017-.087-.082.112-.068.088-.06.067-.036.063-.082.08-.114-.084-.058-.145,0-.168.028-.03.147-.229.081-.159-.072-.13-.068-.006,0-.093,0-.15.006-.351.106-.22.029-.322.149,0-.057,0-.068.184-.1.065-.023.189-.066.41-.059.344-.062.121-.024.442-.08.3,0,.166-.026.107-.114.024-.153-.2-.041-.074.01-.191.006-.059-.025-.025-.013h-.122l-.148-.006-.039-.092-.025-.025-.043-.04a20.492,20.492,0,0,1,19,3.418l.024.157.067.153-.109.036-.1-.051-.049.165-.1-.029-.057-.082-.035-.091-.159.05-.092.011,0,.119-.166-.045-.1-.03-.113.014-.082.081-.021.068-.016.084-.006.018-.156.022-.093.015-.069-.01-.073-.013.1-.066.038-.073-.116,0-.059-.086-.072-.013-.226.2-.119.11-.118.02-.084.059L97.755,72l-.066.036-.087.031-.008.008-.058.044-.12.094-.006.117v.14l-.123.111-.064.056-.087.035-.094-.028-.109-.1-.024-.135.06-.082.122-.11-.047-.156-.087-.125-.172-.04-.272.04,0,.118.053.06-.017.189-.008.093.02.137-.024.165-.022.143-.029.119-.2-.064-.054-.06-.073-.012-.088.075-.052.047L96,72.965l-.078.1-.068.15.01.069.088.125.08.08-.112.018-.128-.074-.1-.052-.143-.007-.1-.053-.087.013,0,.141.018.134.077.037.112.124-.024.117-.136.043-.11.019-.177-.069-.056-.062-.085-.1L94.89,73.6l-.047-.157-.041-.109-.121-.05-.124-.05-.146-.05-.082-.077-.09-.151L94.1,72.79l.255.148.112-.018.075.055.122.037.189.013.23.009.212.015.125.052.152-.072.113-.156.084-.083.083-.075.053-.049.045-.041-.073-.173-.043-.134-.117,0-.125-.075-.036-.027-.125-.091-.062-.026-.089-.04-.119-.053-.337-.065-.091.014-.193-.041H94.4l-.183.028-.077-.036-.168-.041.059-.082-.1-.078-.069.014-.112.015-.094.015-.188.1-.084-.081.059-.054.039-.052.13-.066-.165-.161-.066.012-.049-.039-.1-.054-.012.072.012.087-.108.066-.084-.1.072-.133-.032-.061L93,71.243l-.057.058-.006.118-.031.116-.01.072-.065.033-.057-.062-.012-.065-.047-.019-.012.1-.051.1-.011.015-.029.04,0,.031-.006.062-.054.081-.039-.112-.013-.068.041-.06.015-.02.017-.053.015-.044-.059-.06-.04-.013-.059-.019-.049-.01-.019,0-.073.007v.119l-.04.053-.089.038-.01.091-.059.059-.088.036-.07.011-.153-.072-.081-.016-.038-.01.047.156-.033.053-.074-.018-.1-.025.043.11-.072.012-.084.035-.08.1-.069-.013-.053.106-.084.055-.058.1-.05.077-.006.141-.047.165-.1.085-.08.083-.059.008-.03,0,.041.109.036.088,0,.038,0,.035-.062.078-.071.127-.068.009-.062.059-.029.117-.121.144-.013.019-.029.122-.084.081-.024.12-.086.059-.06.034-.076.01-.091.153-.031.1-.08.059-.01.091.093.034.069-.01-.054.1v0l-.1.065-.093.012-.022-.059-.013-.029-.068-.012-.069.012-.088.036-.013.017-.045.06.014.014.047.046.049.037-.178.078.012.088-.066.013-.089.014-.04.073.01.067-.037.007-.069.055-.029.1-.093.018-.052.072-.107.065-.036.074-.056.1.068.131.018.135.072.15.059.057.173-.047-.019.19-.125.064-.01.093.012.092.093-.013.044.133.019.136.124.051.12.025.272-.038.1-.088.091-.153.153-.069.071-.1.111-.04.089.08.034.11.064.109.006.035.01.071,0,.029.1.17.171.092.076.034.032.061-.077.106-.059.055-.109.039.015.115-.113.015-.074-.01.023.137.083.1h.144l.031-.072-.014-.1.034-.1.088-.038.01.066.057.065.154-.047.06-.059.006-.116.054-.1.079-.06.227-.057.07-.149-.019-.114-.022-.159.026-.141v-.142l-.017-.092.015-.07.088-.015.069-.01.105-.06.066-.037L91.7,76.2l-.035-.064.069-.15-.112-.122-.078-.081-.1-.01-.072-.038L91.3,75.7l-.1-.472.039-.078-.015-.09.057-.053.085-.085.025-.143.016-.014.042-.039v-.139l.084-.085.216-.076.106-.085.027-.124.106-.084-.065-.106-.084-.1.075-.105.059-.078.074-.1.039-.073.036-.077.155-.028.059.065.248-.037.128.072.018.111v.141l-.126.113-.094.133-.052.12-.075.1-.046.17-.119.134-.011.025-.029.072-.011.031.032.2.021.136.07.156-.057.1.082.08.036.084.047-.007.088-.035.069.013-.01.074-.056.1.165,0,.032.066.17.065.078-.078.054-.125.058-.056.127-.091.091-.033.136-.022.111-.04.088-.014.116.145.1.034.091-.013.067-.035.075.035-.052.119-.06.084-.131.023-.1-.035,0,.14-.175.05L93.4,75.8l-.115.016-.093-.033-.1.13-.111.02-.09.013-.056.079-.064.056.015.106,0,.027.031.034.028.027.073.036,0,.328-.081.08-.057.078-.1-.031-.033-.066L92.6,76.66l-.086-.1-.133.045.047.153,0,.163-.031.122-.052.1-.037.071.011.068,0,.023.008.013.053.068.014.093-.012.013-.09.1-.033-.068-.068-.012-.032.12-.01.1-.024.142-.1-.053-.061.032-.052.121-.063-.1-.052-.04-.139.022-.056.078-.212.125-.171.069-.091.04-.092.032-.15.008-.084-.057-.163-.045L90.6,78.1l-.086.2-.111.016-.061-.059-.072-.062-.09.017-.092-.081L90.052,78l.106-.064,0-.093-.059-.085-.018-.113.043-.169.016-.071-.125-.075L89.97,77.2l.076-.129-.015-.1,0-.012-.037-.05-.024-.036-.035.049-.06.082,0,0-.057.1-.071.128-.149.069.122.025-.184.194.066.1.081.082.011.091.04.108.064.082.031.09.059.2.04.112-.114.183-.041,0-.1-.007-.106.039-.159.049-.067.008-.117.018-.006.073-.065.057-.068.152,0,.134v.146l-.01.067-.172.028-.069.009-.008,0-.131.066-.088.039-.1.084,0,.116-.03.1-.062.08-.131.046-.031.1-.085.038-.111.064-.06-.109-.137,0-.028.122.034.088.045.132-.082.059-.1-.011-.088.013-.092.016-.143.091-.066.052-.036.078.018.112.1.011.169.015.148.11.2.1.2.1.074.138.035.206.006.087,0,.075.008.147.034.228-.088.092L88,81.974,87.817,82l-.161-.05-.155.018L87.35,82l-.218.11-.161-.028-.134-.033-.041.06-.066.085-.147.052-.068.087.019.1.1.117.068.119.03.2.027.178-.057.139-.022.182.022.154.047.125.063.063.034.232.019.129.185.023.2-.084.076-.01.093.115.124.085.127.008.143-.1.084-.091L88.045,84l.13-.016.064-.091.033-.107.136-.125.1-.04.037-.112.012-.106.11-.12.013-.082-.067-.093L88.624,83l.081-.141.064-.115.039-.057.092-.119.14-.1.142-.1.04-.06.026-.163-.016-.1-.088-.091.04-.085.134-.068.011-.006h.178l.187.051.136.031.07-.09.054-.111.122-.044.091-.117.056-.14.182-.03.124.164.09.089.129.142.045.121.122.14.139.057.143.081.142.054.165.055.173.129.15.11.112.06.047.121.025.18-.011.1-.068.09-.068.039-.1.012-.105.043-.124.07-.073-.013.072.119.165.052.139.06.084.04,0-.133.032-.136.124-.045.063-.085.068-.09.057-.116,0-.153-.011-.075L92.2,82.56l-.022-.129.17-.1.116.083-.134-.185-.092-.093-.115-.059-.087-.066-.12-.113-.078-.015-.3-.055-.1-.143-.039-.1-.114-.059-.173-.105-.091-.089.008-.087.006-.072v-.049l-.069-.174.212-.109.069.31,0,.012.021-.013.074-.051.109-.146.15.134,0,.035.012.068,0,.025.042.12.174.053.164.077.2.153.291.033.126.161.059.382.043.1.127.161.206.125.125.158.111.064.156,0-.135.124.047.123.129.006.172-.078.135-.125v0l.015-.072.038-.016.06-.027-.041-.1-.048-.012-.077-.02h-.009l-.133-.006-.068-.094-.039-.1.012-.105-.045-.123-.024-.125.118.081.087-.01.069-.01h0l.04-.085-.042-.1.125-.019.235-.012.066.121.082.17.069.118.063.068.015.1-.058.112.043.125.131.009.036.225.122-.016.1.088.162.056.2.125.1-.043.059-.113.045-.085.148-.022.169.077.139.057.156-.025.115-.1.131-.147.139-.1.062.222.006.043.013.067.017.119.04.254.026.178-.044.216v.156l-.013.106-.058.138-.382.035-.1.063-.109-.037-.151.026-.165.1-.076.038-.127.022-.128-.006L95,84.418l-.022.187-.1.039-.075.012-.081-.012-.14-.081-.133-.009-.126.02-.088-.068-.05-.021-.038-.017H94l-.1.017-.1.013-.093-.091-.061-.068-.126.021-.1.015-.153.156-.068.087.023.153.019.125-.066.087-.064.089-.156,0-.082-.013-.106-.036-.137-.057-.17-.053-.189-.077-.146-.1-.209.006-.189-.05-.185-.021-.1-.093-.128-.007L91.22,84.5l-.054-.113-.03-.066-.029-.062.066-.085-.037-.232-.115-.084.041-.185.1-.2-.149.025-.107.01-.124.021-.169.078-.161,0-.108-.035-.036.083-.126.02-.111-.011-.185-.049-.15.049-.012.011-.064.061-.085.085-.226.031-.156-.025-.106.04-.057.113-.115.093-.172.08-.04.084-.174.052-.127.047-.088.066-.231.037-.1.04-.1.016-.137-.057L87.64,84.4l-.127.019.028.175-.028.159-.088.146-.083.117v0l-.087.087h0l-.137.1-.131.2,0,.289.028.2.019.129.024.153-.071.217-.2.267-.083.121-.114.119-.062.112-.122.047-.093.275-.159.307-.024.161-.1.2-.038.271-.166.259.031.2.075.173.012.029.025.07.019.05.007.259.031.174.093.122.033.225-.018.182-.022.216-.069.246-.046.214.1.116.054.2.072.122.094.087.093.12.1.138.138.057.06.068.153.137.122.138.074.169.071.092.106.168.036.04.023.029.042.037.108.1.265.2.2.1.2.125.134.03.138.033.1-.014.412-.191.148-.08.154-.02.2-.034.129-.018.225-.059.173-.055.141-.073.156-.02.156-.183.118-.093.365-.107.008,0,.069.021.041.012.194.1.045.123.034.2.168.081.249-.062.139-.075.131-.02.235.17.072.122-.009.316,0,.1-.035.159.063.385-.1.249.246.247.279.273.291.372.053.2.126.14.157.182.049.309.042.115.025.068.029.084.039.257.045.147.028.173.031.263-.112.225-.012.127,0,.289-.024.214-.007.022-.024.078-.036.117.012.257.114.219.106.188.152.159.165.395.185.179.224.433.033.228.031.2.1.269.029.078.017.061.036.14.135.184.153.16.148.133.094.247.117.232.028.054.008.018.045.134.065.119,0,.287.031.2.066.094.166.052.23-.01.015,0,.1-.028.089-.025.409-.06.112-.123.278-.043.1-.015.262-.144.136-.122h0l.036-.062.028-.05.086-.115.06-.119.09-.089.062-.112.086-.121.061-.113L97.9,101l.086-.118.059-.14.09-.091.062-.112-.1-.117.228-.06-.047-.307-.059-.2-.1-.116.1-.066.108-.121.147-.075.121-.042.065-.091-.015-.105-.049-.662-.077-.149-.035-.071-.09-.092-.045-.124,0-.128.093-.067.035-.134.067-.219.087-.115.262-.145.244-.146.078-.166.112-.278.039-.265-.033-.2-.024-.163-.012-.066-.014-.105-.031-.135-.015-.065-.029-.127-.039-.254-.1-.144-.121-.108-.032-.384.05-.194-.115-.084-.129-.113-.021-.18.1-.323-.042-.282.053-.162.082-.146.181-.184.069-.214.167-.291.064-.242.112-.121.187-.156.2-.214.2-.37.168-.261.086-.275v-.18l.066-.273.1-.377.109-.3.02-.21.047-.215-.028-.189-.006-.04,0-.023-.032-.179-.166.1-.144.073-.146.054-.076.037-.137.123-.045.06-.062.085-.221.013-.064,0-.126.019-.135-.033-.239-.2-.183-.179-.019-.125-.185-.152-.082-.093-.117-.087-.119-.087-.091-.125-.14-.044-.006,0-.068-.037-.082-.043-.066-.2-.056-.153-.006-.016-.029-.053-.06-.107-.126-.118-.125-.157-.126-.117-.066-.233v-.21l-.045-.1-.134-.186-.2-.144-.159-.36-.088-.121-.119-.33-.089-.131-.165-.147-.023-.172-.124-.116-.018-.141-.024-.131.128.152.152.082.225.1.134.191.094.159.242.206.169.185.263.166.021.135.028.169.024.172.09.125.059.132.148.287.04.024.079.043.18.1.167.181.131.153.106.261,0,.008.022.066.04.126.072.264.058.132.242.208.113.05.179.045.226-.14.1-.013.207-.032.318-.189.194-.1.113-.156.139-.1.055-.037v-.209l.257-.146.083-.115.039-.053.05-.066.016-.016.132-.147.263-.109.078-.148.068-.253.084-.117.136-.264-.025-.171.135-.231-.1-.2-.27-.165-.147-.047-.154-.084-.092-.159-.117-.085-.029-.169-.187.259-.012.017-.041.124-.008.022-.292.114-.133.056-.14-.015-.1-.192-.062-.168L100,85.268l-.074.182L99.8,85.3l-.092-.161-.15-.292-.132-.184-.131-.157-.088-.125.01-.173.231-.069.238-.038.161.151.053.129.049.094.131.156.082.091.156.115.117.053.175.042.151-.025.072-.012.016,0,.164-.057.137-.022.141.012.128.153.087.092.136-.02.359.084.186.077.365-.091.538-.152.173.045.074.022.075.02,0,0,.051.1.288.093.2.142.151.082.17-.025-.2.309-.088.118.238.169.242.033.14-.02.092-.083-.037-.238.022-.106.11.056.068.194.033.235v.246l.085.3.137.33.024.054,0,.008.16.39.187.284.04.271.01.034.06.2.009.009.239.234.228.346.07.269.2.144.153-.129.077-.182.128-.087.046.093.043.272.107.225.069.235.179.041.119-.122-.031-.2-.06-.169-.161-.147-.088-.124-.049-.1-.128-.155-.025-.172-.025-.168-.037-.237.037-.216-.047-.307-.033-.2.011-.175.231-.281.146-.2.162-.062.2-.307.088-.119.085-.117.134-.261.064-.05.05-.038c.033.476.056.954.056,1.439a20.5,20.5,0,0,1-20.506,20.5ZM94.8,81.8l-.047.075-.06-.008-.066-.022-.045.028-.109.077-.069.008.046-.083.157-.087.025-.027.037-.032.025-.087-.06-.01-.073-.01-.065-.039-.053-.078-.072-.116.054-.131.041-.136.019-.043.077-.066L94.572,81l-.013-.065-.031-.153.04-.067.013-.041.086-.033-.028-.129-.056-.077.051-.073.052-.059.1-.113.043-.06.035-.115L95,80l.031-.01.038.028.01.025.045.046.157.028.119-.017.1-.05.014.091-.043.036-.115.05-.031.064-.028.066.068.008h.142l.031.059v.08l-.022.051.044.033h.083l.1-.069.125-.061.072-.037.04-.019.047-.028.076-.011.032-.076.163-.054.036.042.034.08.074.029.065.029.113.074.044.03.052.045.066.062.079.057.062.019.15.052.116.02.059.053.057.068.021.029.014.043,0,.038-.007.073-.039.115-.073.082-.043.035-.094.066-.059.018-.064-.028-.035-.028h0l-.04-.022-.027.051v0l-.052.043-.239.024-.1-.034-.055-.022-.026-.038h-.082l-.048.06-.062-.062-.057-.021-.061-.011h-.078L96,81.237l-.122.008-.33.021-.053.076-.115.089-.046.047-.1.049-.025.055-.039.042L95,81.682l-.03-.036-.106.009-.068.028ZM96.315,79.9l.08.05.033.033-.078.1.021.054-.1.026-.108.039-.105.025-.156.025-.062-.025-.066-.036-.012-.06-.064-.022-.053-.024-.029-.046L95.543,80l.205-.024.06,0,.072-.052.057-.092.094-.042.166-.049.041-.056.082-.051.039-.024.054-.031.009,0,.073-.022.078-.012.057,0,.01.055-.064.041-.047.079-.05.031-.034.022-.015.052h0l-.041.006-.081.022Z" transform="translate(-58.387 -58.284)" fill="#335a39"/>
      <path id="Trazado_11" data-name="Trazado 11" d="M140.889,24.369l-.419-.838q.425-.214.858-.413l.391.851C141.439,24.1,141.163,24.232,140.889,24.369Z" transform="translate(-124.475 -20.486)" fill="#335a39"/>
      <path id="Trazado_12" data-name="Trazado 12" d="M28.753,57.875q-.948-.007-1.881-.072l.066-.935c.6.042,1.209.066,1.821.07Zm1.883-.049-.055-.935q.916-.053,1.815-.163l.114.93q-.931.114-1.875.169ZM25,57.608c-.625-.085-1.246-.19-1.858-.316l.189-.918q.889.181,1.8.306Zm9.372-.24-.175-.92q.9-.172,1.778-.4l.235.908q-.909.233-1.838.411ZM21.31,56.857q-.913-.249-1.8-.556l.306-.886c.572.2,1.153.378,1.741.538Zm16.706-.431-.293-.89q.867-.286,1.71-.627l.352.869Q38.912,56.129,38.016,56.426Zm-20.268-.8q-.872-.368-1.714-.786L16.452,54q.814.406,1.657.76ZM41.5,55.017l-.407-.844q.821-.4,1.613-.844l.461.814Q42.354,54.608,41.5,55.017ZM14.375,53.945q-.815-.476-1.6-1l.523-.778q.756.511,1.545.971Zm30.4-.78-.513-.784q.763-.5,1.49-1.047l.564.75Q45.567,52.648,44.779,53.165ZM11.252,51.839q-.745-.578-1.452-1.2l.621-.7q.683.6,1.4,1.162ZM47.788,50.9l-.612-.712q.692-.593,1.344-1.231l.655.671Q48.5,50.29,47.788,50.9ZM8.43,49.347q-.665-.666-1.285-1.376l.706-.616q.6.686,1.243,1.332Zm42.05-1.075-.7-.625q.61-.678,1.175-1.4l.735.58q-.583.739-1.212,1.44ZM5.953,46.513q-.573-.747-1.1-1.532l.78-.519q.506.759,1.059,1.481Zm46.857-1.2-.772-.531q.516-.752.984-1.535l.806.479Q53.344,44.538,52.81,45.314ZM3.862,43.384q-.47-.813-.888-1.66l.84-.413q.4.817.858,1.6Zm50.875-1.307-.835-.425q.414-.811.776-1.652l.861.371q-.373.869-.8,1.706ZM2.2,40.011q-.36-.867-.665-1.762l.888-.3q.294.865.642,1.7Zm54.029-1.4-.884-.313q.3-.855.552-1.736l.9.254Q56.543,37.729,56.227,38.616ZM.985,36.446c-.161-.6-.3-1.215-.427-1.834l.918-.181q.18.9.414,1.773Zm56.264-1.454-.917-.2q.19-.887.322-1.794l.928.136Q57.445,34.074,57.249,34.992Zm-57-2.239C.168,32.129.106,31.5.065,30.88L1,30.819q.059.913.179,1.812Zm57.54-1.486-.934-.076q.073-.9.087-1.82l.937.014Q57.867,30.335,57.79,31.267ZM0,29v-.062c0-.611.018-1.219.057-1.821l.935.06q-.056.872-.056,1.76Zm56.913-1.45q-.046-.915-.149-1.815l.932-.106q.105.93.151,1.876ZM1.163,25.36l-.93-.119c.081-.626.179-1.247.3-1.86l.921.178q-.174.891-.29,1.8ZM56.5,23.929q-.161-.9-.381-1.781l.909-.225q.227.909.394,1.841ZM1.858,21.782l-.906-.239q.242-.913.54-1.8l.89.3Q2.092,20.9,1.858,21.782ZM55.621,20.4c-.186-.58-.391-1.153-.613-1.716l.873-.344q.344.875.633,1.775ZM3.015,18.327l-.867-.357q.36-.873.772-1.719l.842.412q-.4.817-.746,1.664Zm51.271-1.319q-.388-.823-.829-1.62l.819-.454q.455.821.857,1.675Zm-1.762-3.182q-.494-.769-1.034-1.5l.754-.557q.558.759,1.068,1.551Zm-2.163-2.931q-.587-.7-1.219-1.355l.677-.648q.651.678,1.259,1.4ZM47.84,8.266q-.671-.616-1.384-1.187l.585-.73q.736.59,1.431,1.225ZM45,5.985c-.5-.348-1.006-.681-1.527-1l.487-.8q.807.49,1.578,1.03ZM41.882,4.09q-.807-.42-1.644-.791l.379-.856q.865.381,1.7.816ZM18.918,2.776,18.583,1.9c.583-.225,1.182-.432,1.781-.617l.277.895Q19.767,2.452,18.918,2.776Zm19.629-.157q-.856-.312-1.732-.569l.263-.9q.906.263,1.789.587ZM22.4,1.7,22.18.785q.913-.218,1.846-.378l.157.923Q23.282,1.486,22.4,1.7ZM35.05,1.6q-.887-.2-1.791-.337L33.4.333q.935.145,1.851.349Zm-9.06-.515-.1-.931q.93-.1,1.878-.136l.037.937Q26.89.987,25.99,1.082Zm5.461-.043c-.6-.053-1.209-.088-1.819-.1L29.653,0q.948.023,1.879.106Z" fill="#335a39"/>
      <path id="Trazado_13" data-name="Trazado 13" d="M34.683,121.44l-.81-.468q.238-.412.489-.816l.8.495Q34.915,121.042,34.683,121.44Z" transform="translate(-30.016 -106.474)" fill="#335a39"/>
      <path id="Trazado_14" data-name="Trazado 14" d="M43.563,34.658a.664.664,0,1,1,.916.961l-2.627,2.6,1.425,5.869-.971.96L39.89,40.193l-1.965,1.944.174,1.5-.768.759-.887-1.709-1.7-.9.769-.761,1.493.182,1.965-1.945-4.83-2.47.972-.961,5.8,1.441Z" transform="translate(-30.254 -30.532)" fill="#335a39"/>
    </g>
  </g>
</svg>
