<svg width="21" height="20" viewBox="0 0 21 20" fill="none" xmlns="http://www.w3.org/2000/svg">
<path d="M10.6 0C5.07699 0 0.599976 4.47701 0.599976 10C0.599976 15.523 5.07699 20 10.6 20C16.123 20 20.6 15.523 20.6 10C20.6 4.47816 16.123 0 10.6 0ZM13.3908 6.07471C13.3908 6.07471 12.4471 6.07471 12.0735 6.07471C11.608 6.07471 11.5115 6.26552 11.5115 6.74598C11.5115 7.14598 11.5115 7.90805 11.5115 7.90805H13.3908L13.2092 9.94942H11.5115V16.0448H9.07699V9.97471H7.81032V7.90805H9.07699C9.07699 7.90805 9.07699 7.61149 9.07699 6.28046C9.07699 4.75402 9.89423 3.95517 11.7046 3.95517C12.0011 3.95517 13.3908 3.95517 13.3908 3.95517V6.07471Z" fill="black"/>
</svg>
