<svg width="21" height="20" viewBox="0 0 21 20" fill="none" xmlns="http://www.w3.org/2000/svg">
<path d="M10.3 0C4.777 0 0.299988 4.47701 0.299988 10C0.299988 15.523 4.777 20 10.3 20C15.823 20 20.3 15.523 20.3 10C20.3 4.47816 15.823 0 10.3 0ZM7.83562 14.4575H5.7655V7.77126H7.83562V14.4575ZM6.79079 6.8954C6.11493 6.8954 5.56665 6.34253 5.56665 5.66092C5.56665 4.97931 6.11378 4.42759 6.79079 4.42759C7.4678 4.42759 8.01493 4.98046 8.01493 5.66092C8.01493 6.34253 7.46665 6.8954 6.79079 6.8954ZM15.5919 14.4575H13.5322C13.5322 14.4575 13.5322 11.9103 13.5322 10.9483C13.5322 9.98621 13.1667 9.44828 12.4057 9.44828C11.577 9.44828 11.1448 10.008 11.1448 10.9483C11.1448 11.9782 11.1448 14.4575 11.1448 14.4575H9.15861V7.77126H11.1437V8.67241C11.1437 8.67241 11.7402 7.56782 13.1586 7.56782C14.5759 7.56782 15.5908 8.43333 15.5908 10.2241C15.5919 12.0149 15.5919 14.4575 15.5919 14.4575Z" fill="black"/>
</svg>
