<svg width="21.05" height="21.05" viewBox="0 0 21.05 21.05" fill="none" xmlns="http://www.w3.org/2000/svg">
<path d="M10 0C4.47701 0 0 4.47701 0 10C0 15.523 4.47701 20 10 20C15.523 20 20 15.523 20 10C20 4.47816 15.523 0 10 0ZM14.2379 7.82759C14.3759 10.9023 12.0828 14.331 8.02414 14.331C6.78965 14.331 5.64023 13.969 4.67241 13.3483C5.83218 13.4851 6.98966 13.1632 7.90919 12.4425C6.95287 12.4253 6.14483 11.7931 5.86667 10.9241C6.2092 10.9897 6.54598 10.9713 6.85402 10.8874C5.8023 10.6759 5.07701 9.72874 5.1 8.71609C5.39425 8.87931 5.73218 8.97816 6.0908 8.98966C5.11724 8.33908 4.84138 7.05402 5.41379 6.07012C6.49195 7.3931 8.1023 8.26322 9.91954 8.35402C9.60115 6.98621 10.6379 5.67011 12.0494 5.67011C12.6782 5.67011 13.2471 5.93563 13.646 6.36092C14.1437 6.26322 14.6115 6.08046 15.0345 5.82989C14.8713 6.34023 14.5241 6.76897 14.0736 7.03908C14.5149 6.98621 14.9368 6.86897 15.3287 6.6954C15.0356 7.13448 14.6644 7.51954 14.2379 7.82759Z" fill="white"/>
</svg>
